<?xml version="1.0" encoding="UTF-8"?>
<!-- Generator: Adobe Illustrator 16.0.0, SVG Export Plug-In . SVG Version: 6.00 Build 0)  -->
<!DOCTYPE svg PUBLIC "-//W3C//DTD SVG 1.1//EN" "http://www.w3.org/Graphics/SVG/1.1/DTD/svg11.dtd">
<svg version="1.1" id="Capa_1" xmlns="http://www.w3.org/2000/svg" xmlns:xlink="http://www.w3.org/1999/xlink" x="0px" y="0px" width="350px" height="100px" viewBox="0 0 350 100" enable-background="new 0 0 350 100" xml:space="preserve">
<rect x="0.5" y="0.5" display="none" fill="#FFFFFF" width="350" height="100"/>
<g>
	<path fill="#0072CE" d="M79.8,43.2V72c-2.4,0.4-4.8,0.602-7.2,0.602S67.8,72.4,65.4,72V46.4c0-5.7-2.7-8.7-8.1-8.7   c-3.7,0-6,1.399-7.7,2.6c0.1,1,0.2,1.9,0.2,2.9V72c-2.4,0.4-4.8,0.602-7.2,0.602S37.8,72.4,35.5,72V46.4c0-5.7-2.8-8.7-8.2-8.7   c-3.2,0-5.7,0.899-7.4,1.899V72c-2.4,0.4-4.8,0.602-7.2,0.602C10.3,72.602,8,72.4,5.6,72V32.3c3-2.8,11.6-7.6,22.9-7.6   c6.5,0,11.5,1.6,14.9,4.3c3.7-2.3,9-4.3,15.2-4.3C72.9,24.7,79.8,32.5,79.8,43.2"/>
	<path fill="#0072CE" d="M130.7,45.1v24.001c-6.8,2.799-14.8,4.5-23.1,4.5c-13.1,0-20.7-5-20.7-15C86.9,49,95.2,44,106.9,44.1   c3.7,0.101,6.8,0.5,9.6,1.4v-1.8c0-4-2.7-6.8-9.5-6.8c-5.4,0-10,2.1-12.4,4c-3.1-1.7-5.5-4.9-6.2-9.2c2.6-2.3,9.8-6.7,19.9-6.7   C121.5,25,130.7,30.8,130.7,45.1 M109.5,63.602c2.3,0,4.6-0.4,6.9-1.102v-8.398C114.1,53.4,111.5,53,108.5,53   c-4.5,0-7.3,1.5-7.3,4.9C101.2,61.3,104,63.602,109.5,63.602"/>
	<path fill="#0072CE" d="M184.1,27.2c-4,29.2-15.1,50.7-35.8,65.5c-4.4-1.5-7.3-5.8-8.6-9.9c5.1-4.1,9.6-8.198,12.5-12.198   C142.8,56.102,138.6,43.6,135,27.1c2-0.5,6.5-1.1,10.5-1.1c1.7,0,3.8,0.1,5.4,0.3c1.7,10.601,4.9,22,8.9,31.2   c0.5,1.102,0.8,1.9,1,2.602c0.2-1,0.5-1.9,0.8-2.602c4-9.3,6.2-20.5,7.5-31.2c1.8-0.2,3.9-0.3,5.7-0.3   C178.199,26.1,181.5,26.5,184.1,27.2"/>
	<path fill="#0072CE" d="M276.199,26.2c-0.1,4.7-1.398,9.2-4.1,12.399c-1.699-0.5-3.5-0.699-5.5-0.699c-3,0-5.5,0.6-7,1.3V72   c-2.3,0.4-4.8,0.602-7.199,0.602c-2.4,0-4.701-0.201-7.101-0.602V31.8c3.199-2.899,10.3-7,20.3-7C270,24.8,273.5,25.3,276.199,26.2   "/>
	<path fill="#0072CE" d="M321.9,45.1v24.001c-6.801,2.799-14.801,4.5-23.101,4.5c-13.102,0-20.7-5-20.7-15   C278.1,49,286.4,44,298.1,44.1c3.701,0.101,6.801,0.5,9.601,1.4v-1.8c0-4-2.699-6.8-9.5-6.8c-5.398,0-10,2.1-12.398,4   c-3.102-1.7-5.5-4.9-6.2-9.2c2.6-2.3,9.801-6.7,19.899-6.7C312.699,25,321.9,30.8,321.9,45.1 M300.6,63.602   c2.301,0,4.601-0.4,6.9-1.102v-8.398C305.199,53.4,302.6,53,299.6,53c-4.5,0-7.299,1.5-7.299,4.9   C292.301,61.3,295.1,63.602,300.6,63.602"/>
	<path fill="#0072CE" d="M331,72.102V8.9c2.199-0.4,4.6-0.601,7-0.601s4.9,0.2,7.4,0.601v63.2c-2.201,0.399-4.701,0.601-7.101,0.601   C335.9,72.602,333.5,72.4,331,72.102"/>
	<path fill="#0072CE" d="M212.699,24.7c-14.6,0-25.199,9.7-25.199,24.5c0,15.1,10.4,24.399,25,24.399S237.699,63.9,237.699,49.2   C237.699,34.3,227.199,24.7,212.699,24.7z M225.199,59.2c-0.199,0-0.398,0-0.6,0l0,0H201l0,0c-3.6-0.3-6.5-3.4-6.5-7.101   c0-3.399,2.4-6.301,5.699-6.899c-0.199-0.8-0.398-1.7-0.398-2.601c0-5.1,4.1-9.199,9.199-9.199c4.5,0,8.199,3.199,9,7.399   c0.5-0.1,1-0.2,1.5-0.2c3.699,0,6.6,3,6.6,6.601c0,0.3,0,0.6-0.1,0.899c2.699,0.4,4.801,2.7,4.801,5.5   C230.699,56.7,228.199,59.2,225.199,59.2z"/>
</g>
</svg>